# xmcd
#
# Track frame offsets:
# 150
# 33725
# 58186
# 89804
# 118364
# 151298
# 187671
# 221908
# 255687
#
# Disc length: 3853 seconds
#
# Revision: 0
# Processed by: cddbd v1.5PL3 Copyright (c) Steve Scherf et al.
# Submitted via: Audion 3.0.2 (http://www.panic.com/audion/)
#
DISCID=880f0b09
DTITLE=_ - House - Dance 088
DYEAR=1900
DGENRE=
TTITLE0=Agoria - La 11eme Marche
TTITLE1=Benassi Bros Ft Sandy - Illusion
TTITLE2=DJ Flex pres. Feedback EP - Amazing
TTITLE3=Massive Lust - Never
TTITLE4=pure polly esther - stand back
TTITLE5=Rogue Traders - Stay
TTITLE6=Rune - Calabria
TTITLE7=Stereorama - Illusion
TTITLE8=Syke 'n' Sugarstarr - Ticket 2 Ride
EXTD=
EXTT0=
EXTT1=
EXTT2=
EXTT3=
EXTT4=
EXTT5=
EXTT6=
EXTT7=
EXTT8=
PLAYORDER=
